<svg xmlns="http://www.w3.org/2000/svg" viewBox="-104 -86 260 260" font-family="sans-serif" xmlns:xlink="http://www.w3.org/1999/xlink"><g transform="matrix(0.9455185755993168,-0.3255681544571567,0.3255681544571567,0.9455185755993168,0,0)" fill="rgb(0,0,0)" fill-opacity="0" stroke="rgb(0,0,0)" stroke-opacity="0" style="fill:rgb(0,0,0);stroke:rgb(0,0,0);"><rect transform="matrix(1,0,0,1,0,0)" fill="rgb(0,0,0)" fill-opacity="0" stroke="rgb(0,0,0)" stroke-opacity="0" stroke-width="1" x="0" y="0" width="100" height="30" style="fill:rgb(0,0,0);stroke:rgb(0,0,0);"></rect><g fill="rgb(0,0,0)" fill-opacity="0" stroke="rgb(0,0,0)" stroke-opacity="0" style="fill:rgb(0,0,0);stroke:rgb(0,0,0);"><rect transform="matrix(1,0,0,1,0,0)" fill="rgb(0,0,0)" fill-opacity="0" stroke="rgb(0,0,0)" stroke-opacity="0" stroke-width="1" x="0" y="0" width="100" height="30" style="fill:rgb(0,0,0);stroke:rgb(0,0,0);"></rect><rect transform="matrix(1,0,0,1,0,60)" fill="rgb(0,0,0)" fill-opacity="0" stroke="rgb(0,0,0)" stroke-opacity="0" stroke-width="1" x="0" y="0" width="100" height="30" style="fill:rgb(0,0,0);stroke:rgb(0,0,0);"></rect><rect transform="matrix(1,0,0,1,0,120)" fill="rgb(0,0,0)" fill-opacity="0" stroke="rgb(0,0,0)" stroke-opacity="0" stroke-width="1" x="0" y="0" width="100" height="30" style="fill:rgb(0,0,0);stroke:rgb(0,0,0);"></rect></g><rect transform="matrix(1,0,0,1,0,0)" fill="rgb(0,0,0)" fill-opacity="0" stroke="rgb(0,0,0)" stroke-opacity="0" stroke-width="1" x="0" y="0" width="30" height="150" style="fill:rgb(0,0,0);stroke:rgb(0,0,0);"></rect></g><g><g transform="matrix(0.9455185755993168,-0.3255681544571567,0.3255681544571567,0.9455185755993168,0,0)" fill="rgb(204,58.820015092329555,141.0886732066761)" fill-opacity="1" style="fill:rgb(204,58.820015092329555,141.0886732066761);"><rect transform="matrix(1,0,0,1,0,0)" fill="rgb(204,58.820015092329555,141.0886732066761)" fill-opacity="1" stroke="rgb(0,0,0)" stroke-opacity="0" stroke-width="1" x="0" y="0" width="100" height="30" style="fill:rgb(204,58.820015092329555,141.0886732066761);stroke:rgb(0,0,0);"></rect><g fill="rgb(204,58.820015092329555,141.0886732066761)" fill-opacity="1" style="fill:rgb(204,58.820015092329555,141.0886732066761);"><rect transform="matrix(1,0,0,1,0,0)" fill="rgb(204,58.820015092329555,141.0886732066761)" fill-opacity="1" stroke="rgb(0,0,0)" stroke-opacity="1" stroke-width="1" x="0" y="0" width="100" height="30" style="fill:rgb(204,58.820015092329555,141.0886732066761);stroke:rgb(0,0,0);"></rect><rect transform="matrix(1,0,0,1,0,60)" fill="rgb(204,58.820015092329555,141.0886732066761)" fill-opacity="1" stroke="rgb(0,0,0)" stroke-opacity="1" stroke-width="1" x="0" y="0" width="100" height="30" style="fill:rgb(204,58.820015092329555,141.0886732066761);stroke:rgb(0,0,0);"></rect><rect transform="matrix(1,0,0,1,0,120)" fill="rgb(204,58.820015092329555,141.0886732066761)" fill-opacity="1" stroke="rgb(0,0,0)" stroke-opacity="1" stroke-width="1" x="0" y="0" width="100" height="30" style="fill:rgb(204,58.820015092329555,141.0886732066761);stroke:rgb(0,0,0);"></rect></g><rect transform="matrix(1,0,0,1,0,0)" fill="rgb(204,58.820015092329555,141.0886732066761)" fill-opacity="1" stroke="rgb(0,0,0)" stroke-opacity="1" stroke-width="1" x="0" y="0" width="30" height="150" style="fill:rgb(204,58.820015092329555,141.0886732066761);stroke:rgb(0,0,0);"></rect></g><g transform="matrix(0.9455185755993168,-0.3255681544571567,0.3255681544571567,0.9455185755993168,-45.82495611222029,-4.009164166392275)" fill="rgb(133.82967396129249,58.820015092329555,204)" fill-opacity="1" style="fill:rgb(133.82967396129249,58.820015092329555,204);"><rect transform="matrix(1,0,0,1,0,0)" fill="rgb(133.82967396129249,58.820015092329555,204)" fill-opacity="1" stroke="rgb(0,0,0)" stroke-opacity="0" stroke-width="1" x="0" y="0" width="100" height="30" style="fill:rgb(133.82967396129249,58.820015092329555,204);stroke:rgb(0,0,0);"></rect><g fill="rgb(133.82967396129249,58.820015092329555,204)" fill-opacity="1" style="fill:rgb(133.82967396129249,58.820015092329555,204);"><rect transform="matrix(1,0,0,1,0,0)" fill="rgb(133.82967396129249,58.820015092329555,204)" fill-opacity="1" stroke="rgb(0,0,0)" stroke-opacity="1" stroke-width="1" x="0" y="0" width="100" height="30" style="fill:rgb(133.82967396129249,58.820015092329555,204);stroke:rgb(0,0,0);"></rect><rect transform="matrix(1,0,0,1,0,60)" fill="rgb(133.82967396129249,58.820015092329555,204)" fill-opacity="1" stroke="rgb(0,0,0)" stroke-opacity="1" stroke-width="1" x="0" y="0" width="100" height="30" style="fill:rgb(133.82967396129249,58.820015092329555,204);stroke:rgb(0,0,0);"></rect><rect transform="matrix(1,0,0,1,0,120)" fill="rgb(133.82967396129249,58.820015092329555,204)" fill-opacity="1" stroke="rgb(0,0,0)" stroke-opacity="1" stroke-width="1" x="0" y="0" width="100" height="30" style="fill:rgb(133.82967396129249,58.820015092329555,204);stroke:rgb(0,0,0);"></rect></g><rect transform="matrix(1,0,0,1,0,0)" fill="rgb(133.82967396129249,58.820015092329555,204)" fill-opacity="1" stroke="rgb(0,0,0)" stroke-opacity="1" stroke-width="1" x="0" y="0" width="30" height="150" style="fill:rgb(133.82967396129249,58.820015092329555,204);stroke:rgb(0,0,0);"></rect></g><g transform="matrix(0.9455185755993168,-0.3255681544571567,0.3255681544571567,0.9455185755993168,-91.64991222444058,-8.01832833278455)"><rect transform="matrix(1,0,0,1,0,0)" fill="rgb(0,0,0)" fill-opacity="0" stroke="rgb(0,0,0)" stroke-opacity="0" stroke-width="1" x="0" y="0" width="100" height="30" style="fill:rgb(0,0,0);stroke:rgb(0,0,0);"></rect><g><rect transform="matrix(1,0,0,1,0,0)" fill="rgb(64.64461541294065,104.89696039373223,215.5909090909091)" fill-opacity="1" stroke="rgb(0,0,0)" stroke-opacity="1" stroke-width="1" x="0" y="0" width="100" height="30" style="fill:rgb(64.64461541294065,104.89696039373223,215.5909090909091);stroke:rgb(0,0,0);"></rect><rect transform="matrix(1,0,0,1,0,60)" fill="rgb(64.64461541294065,104.89696039373223,215.5909090909091)" fill-opacity="1" stroke="rgb(0,0,0)" stroke-opacity="1" stroke-width="1" x="0" y="0" width="100" height="30" style="fill:rgb(64.64461541294065,104.89696039373223,215.5909090909091);stroke:rgb(0,0,0);"></rect><rect transform="matrix(1,0,0,1,0,120)" fill="rgb(64.64461541294065,104.89696039373223,215.5909090909091)" fill-opacity="1" stroke="rgb(0,0,0)" stroke-opacity="1" stroke-width="1" x="0" y="0" width="100" height="30" style="fill:rgb(64.64461541294065,104.89696039373223,215.5909090909091);stroke:rgb(0,0,0);"></rect></g><rect transform="matrix(1,0,0,1,0,0)" fill="rgb(64.64461541294065,104.89696039373223,215.5909090909091)" fill-opacity="1" stroke="rgb(0,0,0)" stroke-opacity="1" stroke-width="1" x="0" y="0" width="30" height="150" style="fill:rgb(64.64461541294065,104.89696039373223,215.5909090909091);stroke:rgb(0,0,0);"></rect></g></g></svg>